<svg width="62" height="48" xmlns="http://www.w3.org/2000/svg">
  <defs>
    <filter id="a">
      <feColorMatrix in="SourceGraphic" values="0 0 0 0 0.776471 0 0 0 0 0.776471 0 0 0 0 0.776471 0 0 0 1.000000 0"/>
    </filter>
  </defs>
  <g filter="url(#a)" fill="none" fill-rule="evenodd">
    <g fill="#000" fill-rule="nonzero">
      <path d="M60.67 2.13L37.33 24.98l23.6 20.89c.58-.88.94-1.94.94-3.09V5.53c0-1.3-.46-2.46-1.2-3.4zM26.73 23.64l.82.76a4.54 4.54 0 006.14 0L58.67.67A5.29 5.29 0 0056.12 0h-51C4.03 0 3 .34 2.14.92l24.6 22.72zM.9 2.13C.32 3 0 4.01 0 5.11v36.8c0 1.06.32 2.05.85 2.89l23.68-20.46L.9 2.14zM35.55 26.79l-.02.01a6.71 6.71 0 01-5.74 1.64c-.13-.02-.26-.08-.39-.1-.26-.07-.53-.13-.79-.23a6.58 6.58 0 01-2.13-1.3l-.15-.14-24.2 20.36c.88.6 1.94.97 3.1.97h51.56c1.09 0 2.1-.32 2.94-.87L35.68 26.67l-.13.12z"/>
    </g>
  </g>
</svg>