<svg width="159" height="79" xmlns="http://www.w3.org/2000/svg">
  <defs>
    <filter id="a">
      <feColorMatrix in="SourceGraphic" values="0 0 0 0 0.776471 0 0 0 0 0.776471 0 0 0 0 0.776471 0 0 0 1.000000 0"/>
    </filter>
  </defs>
  <g filter="url(#a)" fill="none" fill-rule="evenodd">
    <g fill="#000">
      <path d="M154.88 11.41a4 4 0 014 4v39.4a4 4 0 01-4 4h-81a31.56 31.56 0 003.3-6.97c.95-3.1 1.38-5.11 1.59-10.27.06-1.63.1-4.74.1-9.32v-1.63c0-4.92-.04-11.33-.1-19.2h76.1zm-20.15 35.2h-.93c-.12 0-.19.07-.19.18v5.26c0 1.15.65 1.95 1.69 1.95.55 0 .95-.24 1.2-.56.07.17.27.36.52.43v1c0 .12.06.19.19.19h.84c.13 0 .2-.07.2-.18V53.5c0-1.05-.92-.31-.92-1.29V46.8c0-.11-.07-.17-.19-.17h-.93c-.11 0-.19.06-.19.17v5.33c0 .43-.24.68-.59.68-.34 0-.53-.26-.53-.66V46.8c0-.11-.05-.17-.17-.17zm-13.75 0h-.93c-.13 0-.19.07-.19.18v5.26c0 1.16.64 1.95 1.7 1.95.49 0 .86-.2 1.12-.54l.1.27c.04.1.1.14.2.14h.41c.12 0 .2-.06.2-.18v-6.9c0-.11-.08-.17-.2-.17h-.93c-.11 0-.18.06-.18.17v5.33c0 .43-.24.68-.6.68-.33 0-.52-.25-.52-.66V46.8c0-.11-.07-.17-.18-.17zm19 0h-.93c-.13 0-.19.07-.19.18v5.26c0 1.16.65 1.95 1.7 1.95.49 0 .86-.2 1.12-.54l.1.27c.05.1.1.14.2.14h.42c.11 0 .18-.06.18-.18v-6.9c0-.11-.07-.17-.18-.17h-.94c-.11 0-.18.06-.18.17v5.33c0 .43-.24.68-.6.68-.33 0-.52-.25-.52-.66V46.8c0-.11-.06-.17-.18-.17zm-38.04-.1c-1.13 0-1.91.78-1.91 1.97v3.53c0 1.19.78 1.98 1.9 1.98 1.14 0 1.9-.79 1.9-1.95v-3.59c0-1.16-.76-1.95-1.9-1.95zm24.22-.02c-1.03 0-1.72.74-1.8 1.87 0 .12.07.18.18.18h.94c.11 0 .18-.06.2-.18.02-.46.19-.68.48-.68.3 0 .5.24.5.62v.66c0 .37-.19.65-.55.65h-.6c-.12 0-.18.06-.18.19v.79c0 .11.06.18.18.18h.67c.43 0 .65.3.65.73v.55c0 .4-.22.68-.64.68-.34 0-.56-.21-.6-.6-.01-.12-.07-.18-.18-.18h-.95c-.11 0-.19.06-.17.18.07 1.1.77 1.8 1.87 1.8 1.23 0 1.98-.78 1.98-1.96v-.45c0-.58-.25-1.12-.73-1.4.34-.28.53-.75.53-1.29v-.39c0-1.16-.71-1.95-1.78-1.95zm-32.23.01c-1.06 0-1.78.77-1.78 1.93v4.94c0 .32.23.55.55.55H94c1.1 0 1.85-.77 1.85-1.96v-.44c0-.6-.25-1.08-.68-1.4.35-.29.56-.74.55-1.28v-.41c0-1.16-.72-1.93-1.8-1.93zm12.2.07h-.8c-.36 0-.54.21-.54.58v6.54c0 .12.06.18.18.18h.9c.13 0 .18-.06.18-.18v-3.37c0-.72-.02-1.38-.05-2.05h.03c.08.44.22 1.01.33 1.45l.52 1.8c.08.3.27.48.59.48h.31c.32 0 .5-.18.6-.48l.5-1.8c.13-.44.26-1.01.34-1.45h.03c-.02.67-.05 1.33-.05 2.05v3.37c0 .12.05.18.18.18h.9c.12 0 .18-.06.18-.18v-6.54c0-.37-.18-.58-.53-.58h-.8c-.3 0-.44.18-.53.5l-.62 2.05c-.12.38-.26.92-.34 1.31h-.03c-.08-.4-.22-.93-.33-1.3l-.63-2.07c-.1-.31-.23-.49-.53-.49zm7.21-.07c-1.1 0-1.85.78-1.85 1.96v5.23c0 .12.06.18.19.18h.93c.11 0 .17-.06.17-.18v-2.05h1.12v2.05c0 .12.08.18.19.18h.93c.12 0 .19-.06.19-.18v-5.23c0-1.18-.75-1.96-1.87-1.96zm5.71.12h-3.26c-.11 0-.18.06-.18.17v.84c0 .12.07.18.18.18h1v5.88c0 .12.06.18.17.18h.93c.12 0 .18-.06.18-.18V47.8h.98c.13 0 .19-.06.19-.18v-.84c0-.11-.06-.17-.19-.17zm26.45-.13c-1.15 0-1.9.8-1.9 1.97v1c0 .73.3 1.31.79 1.63l-.99 2.6c-.05.11.05.18.18.18h1.01c.12 0 .15-.07.19-.17l.79-2.27h.47v2.26c0 .12.07.18.18.18h.94c.12 0 .19-.06.19-.18v-5.23c0-1.17-.74-1.97-1.85-1.97zm-56.2.01c-1.1 0-1.85.78-1.85 1.96v5.23c0 .12.06.18.19.18h.93c.12 0 .18-.06.18-.18v-2.05h1.12v2.05c0 .12.07.18.18.18H91c.11 0 .18-.06.18-.18v-5.23c0-1.18-.74-1.96-1.86-1.96zm41.47 0c-1.1 0-1.85.78-1.85 1.96v5.23c0 .12.06.18.18.18h.94c.1 0 .17-.06.17-.18v-2.05h1.12v2.05c0 .12.07.18.19.18h.93c.11 0 .19-.06.19-.18v-5.23c0-1.18-.75-1.96-1.87-1.96zm-31.27.12h-3.26c-.12 0-.18.06-.18.17v.84c0 .12.06.18.18.18h1v5.88c0 .12.06.18.17.18h.93c.12 0 .18-.06.18-.18V47.8h.98c.13 0 .19-.06.19-.18v-.84c0-.11-.06-.17-.19-.17zm2.44 1.08c.36 0 .59.26.59.66v3.77c0 .4-.23.64-.6.64-.36 0-.6-.24-.6-.67V48.4c0-.43.24-.69.6-.69zm-7.96 3.08c.35 0 .56.26.56.7v.58c0 .42-.2.67-.56.67h-.54v-1.95h.54zm19.36-3.07c.36 0 .56.25.56.66v2.08h-1.12v-2.08c0-.4.21-.66.56-.66zm17.43 0c.35 0 .56.25.56.66v2.08h-1.12v-2.08c0-.4.2-.66.56-.66zm-41.46 0c.35 0 .56.25.56.66v2.08h-1.12v-2.08c0-.4.2-.66.56-.66zm56.17 0c.36 0 .56.25.56.66v1.86h-.48c-.42 0-.64-.26-.64-.72v-1.14c0-.4.2-.66.56-.66zm-51.56 0c.32 0 .52.23.52.6V49c0 .4-.2.64-.5.64h-.5v-1.31c0-.38.18-.62.48-.62zm30.43-31.8c-3.45 0-5.77 2.52-5.77 6.27v19.29c0 .67.45 1.12 1.12 1.12h5.14c3.67 0 6.11-2.51 6.11-6.3v-1.84c0-2.63-1.46-4.73-3.75-5.44 1.91-.56 3.11-2.52 3.11-5.03v-1.8c0-3.75-2.36-6.27-5.96-6.27zm-9.97.26h-3.9c-3.6 0-6.12 2.82-6.12 6.46v13.5c0 3.65 2.52 6.46 6.12 6.46h3.9c.22 0 .37-.15.37-.37v-1.35c0-.23-.15-.38-.37-.38h-3.9c-2.3 0-3.87-1.88-3.87-4.35v-5.9h6.87c.22 0 .37-.14.37-.37v-1.35c0-.22-.15-.37-.37-.37h-6.87v-5.52c0-2.48 1.58-4.35 3.87-4.35h3.9c.22 0 .37-.15.37-.38v-1.35c0-.23-.15-.38-.37-.38zm26.7-.26c-3.72 0-6.2 2.7-6.2 6.76v19.47c0 .23.16.38.38.38h1.5c.23 0 .38-.15.38-.38V33H145v9.15c0 .23.15.38.38.38h1.5c.22 0 .37-.15.37-.38V22.67c0-4.06-2.47-6.76-6.19-6.76zm-51.53.34h-1.5c-.22 0-.37.15-.37.38v25.51c0 .23.15.38.37.38h1.5c.23 0 .38-.15.38-.38V30.21h7.5v11.93c0 .23.15.38.37.38h1.5c.23 0 .38-.15.38-.38V16.63c0-.23-.15-.38-.38-.38h-1.5c-.22 0-.37.15-.37.38v11.52h-7.5V16.63c0-.23-.15-.38-.38-.38zm35.29 14c2.43 0 3.86 1.57 3.86 4.2v1.84c0 2.62-1.43 4.2-3.86 4.2h-4.01V30.25h4zM141.07 18c2.52 0 3.94 1.73 3.94 4.66v8.21h-7.87v-8.21c0-2.93 1.42-4.66 3.93-4.66zm-16.72 0c2.36 0 3.71 1.54 3.71 4.17v1.8c0 2.63-1.39 4.17-3.75 4.17h-3.48v-5.97c0-2.63 1.3-4.17 3.52-4.17zM11.28 41.57c.23 4.28.66 7.46 1.3 9.53a56.04 56.04 0 003.15 7.71H4a4 4 0 01-4-4v-39.4a4 4 0 014-4h7.28z"/>
      <g fill-rule="nonzero">
        <path d="M29.63 49.38a3.71 3.71 0 00-3.72 3.7c0 2.04 1.66 3.7 3.72 3.7a3.71 3.71 0 003.73-3.7c0-2.05-1.67-3.7-3.73-3.7zm0 4.93c-.68 0-1.24-.55-1.24-1.23a1.24 1.24 0 012.48 0c0 .68-.55 1.23-1.24 1.23zM38.57 49.38a3.71 3.71 0 00-3.72 3.7 3.71 3.71 0 007.45 0c0-2.05-1.67-3.7-3.73-3.7zm0 4.93c-.68 0-1.24-.55-1.24-1.23a1.24 1.24 0 012.48 0c0 .68-.55 1.23-1.24 1.23zM55.71 51.1c0-.68-.56-1.23-1.24-1.23h-7.45c-.69 0-1.24.55-1.24 1.23 0 .68.55 1.24 1.24 1.24h7.45c.68 0 1.24-.56 1.24-1.24zM29.63 36.04a3.71 3.71 0 00-3.72 3.7 3.71 3.71 0 007.45 0c0-2.04-1.67-3.7-3.73-3.7zm0 4.94c-.68 0-1.24-.55-1.24-1.23a1.24 1.24 0 012.48 0c0 .68-.55 1.23-1.24 1.23zM38.57 36.04a3.71 3.71 0 00-3.72 3.7 3.71 3.71 0 007.45 0c0-2.04-1.67-3.7-3.73-3.7zm0 4.94c-.68 0-1.24-.55-1.24-1.23a1.24 1.24 0 012.48 0c0 .68-.55 1.23-1.24 1.23zM54.47 36.54h-7.45c-.69 0-1.24.55-1.24 1.23 0 .68.55 1.24 1.24 1.24h7.45a1.24 1.24 0 100-2.47zM29.63 30.12c1.5 0 2.87-.9 3.44-2.29a3.69 3.69 0 00-.8-4.03 3.74 3.74 0 00-6.36 2.62c0 2.04 1.66 3.7 3.72 3.7zm0-4.94a1.24 1.24 0 110 2.47c-.68 0-1.24-.55-1.24-1.23 0-.69.56-1.24 1.24-1.24zM38.57 30.12c1.5 0 2.87-.9 3.44-2.29a3.69 3.69 0 00-.8-4.03 3.74 3.74 0 00-6.36 2.62c0 2.04 1.67 3.7 3.72 3.7zm0-4.94a1.24 1.24 0 110 2.47c-.68 0-1.24-.55-1.24-1.23 0-.69.56-1.24 1.24-1.24zM47.02 26.66h7.45c.68 0 1.24-.55 1.24-1.23 0-.68-.56-1.24-1.24-1.24h-7.45a1.24 1.24 0 100 2.47zM54.22 53.82h-2.98c-.82 0-1.5.55-1.5 1.23 0 .68.68 1.24 1.5 1.24h2.98c.82 0 1.49-.56 1.49-1.24 0-.68-.67-1.23-1.5-1.23z"/>
        <path d="M76.2 10.26L45.43.06a1.28 1.28 0 00-.82 0l-30.75 10.2c-.53.17-.88.66-.88 1.2v30.05c0 11.74 6.25 22.6 16.42 28.55l14.97 8.76c.4.24.9.24 1.3 0l14.97-8.76a33.09 33.09 0 0016.42-28.55V11.47c0-.55-.35-1.04-.88-1.21zm-19.64 11.4v10.2H26.45a1.92 1.92 0 01-1.92-1.92v-6.37c0-1.05.86-1.9 1.92-1.9h30.11zM26.45 44.6a1.92 1.92 0 01-1.92-1.91V36.3c0-1.05.86-1.9 1.92-1.9h30.11V44.6H26.45zm30.11 2.55v10.19H26.45a1.92 1.92 0 01-1.92-1.91v-6.37c0-1.06.86-1.91 1.92-1.91h30.11zM43.75 75.5L30.7 67.87A30.54 30.54 0 0115.55 41.5V12.4l28.2-9.35v16.07h-17.3c-2.48 0-4.49 2-4.49 4.46v6.37c0 1.2.49 2.35 1.35 3.19a4.43 4.43 0 00-1.35 3.18v6.38c0 1.2.49 2.34 1.35 3.18a4.43 4.43 0 00-1.35 3.19v6.37c0 2.46 2.01 4.45 4.49 4.46h14.74v2.55c0 .7.57 1.27 1.28 1.27h1.28V75.5zm0-14.34V59.9h2.56v1.27h-2.56zM74.5 41.51a30.54 30.54 0 01-15.16 26.36L46.31 75.5V63.7h1.28c.71 0 1.28-.57 1.28-1.27v-2.55h14.74c2.48 0 4.49-2 4.49-4.46v-6.37c0-1.2-.49-2.35-1.35-3.19a4.43 4.43 0 001.35-3.18V36.3c0-1.2-.49-2.34-1.35-3.18a4.43 4.43 0 001.35-3.19v-6.37c0-2.46-2.01-4.45-4.49-4.46h-17.3V3.04l28.2 9.35V41.5zm-14.1-7.1V44.6h-1.28V34.4h1.28zm-1.28-2.55v-10.2h1.28v10.2h-1.28zm1.28 15.29v10.19h-1.28v-10.2h1.28zm3.2-12.75c1.06 0 1.92.86 1.92 1.91v6.38c0 1.05-.86 1.9-1.92 1.9h-.64V34.4h.64zm-.64-2.54v-10.2h.64c1.06 0 1.92.86 1.92 1.91v6.37c0 1.06-.86 1.91-1.92 1.92h-.64zm.64 15.29c1.06 0 1.92.85 1.92 1.9v6.38c0 1.05-.86 1.9-1.92 1.9h-.64V47.16h.64z"/>
      </g>
    </g>
  </g>
</svg>