<svg width="48" height="48" xmlns="http://www.w3.org/2000/svg">
  <defs>
    <filter id="a">
      <feColorMatrix in="SourceGraphic" values="0 0 0 0 0.776471 0 0 0 0 0.776471 0 0 0 0 0.776471 0 0 0 1.000000 0"/>
    </filter>
  </defs>
  <g filter="url(#a)" fill="none" fill-rule="evenodd">
    <path d="M35.96 0H12C5.41 0 0 5.41 0 12.04V36c0 6.59 5.41 12 12 12h23.96C42.6 48 48 42.59 48 35.96V12.04C48 5.4 42.59 0 35.96 0zM22.7 9.87c.08-1.18 1.19-.77 1.76-.84 7.16.23 13.33 6.67 13.25 13.6 0 .68.23 1.67-.8 1.67-.99 0-.72-1.02-.83-1.71-.96-7.35-4.38-10.82-11.85-11.96-.61-.08-1.56.04-1.53-.76zm10.71 13.06c-1.14.16-.91-.83-1.03-1.48-.76-4.5-2.36-6.14-6.97-7.13-.69-.15-1.75-.03-1.56-1.06.15-1 1.1-.65 1.83-.57 4.6.53 8.38 4.45 8.34 8.76-.08.45.23 1.33-.61 1.48zm-2.86-2.36c0 .61-.07 1.18-.76 1.26-.5.07-.8-.34-.88-.84-.19-1.83-1.18-2.93-3.08-3.24-.57-.07-1.1-.26-.84-1.03.2-.5.65-.57 1.14-.57 2.06-.04 4.42 2.36 4.42 4.42zm7.24 14.06c-.8 2.17-3.5 4.38-5.83 4.34-.34-.07-.99-.19-1.56-.42-10.21-4.3-17.64-11.39-21.83-21.52-1.4-3.4.08-6.29 3.62-7.43a2.73 2.73 0 011.9 0c1.53.53 5.38 5.75 5.45 7.28.08 1.18-.76 1.82-1.56 2.36-1.56 1.03-1.56 2.32-.88 3.8a13.79 13.79 0 007.36 7.02c1.18.53 2.36.5 3.16-.73 1.45-2.17 3.24-2.05 5.18-.72.99.69 1.98 1.33 2.9 2.06 1.25 1.03 2.85 1.86 2.09 3.96z" fill="#000" fill-rule="nonzero"/>
  </g>
</svg>