<svg xmlns="http://www.w3.org/2000/svg" width="120" height="120" viewBox="0 0 120 120">
  <g fill="none" fill-rule="evenodd">
    <path stroke="#030303" stroke-width="3" d="M2 18h117v25H2z"/>
    <path stroke="#000" stroke-linecap="square" stroke-width="5" d="M12 27h16M12 33h16M61 27h16M61 33h16"/>
    <g transform="translate(3 49)">
      <path stroke="#030303" stroke-width="3" d="M-1-1h117v25H-1z"/>
      <path stroke="#000" stroke-linecap="square" stroke-width="5" d="M9 8h16M9 14h16M58 8h16M58 14h16M34 8h15"/>
      <circle cx="96.1" cy="11.2" r="6" fill="#00AA21"/>
      <path stroke="#000" stroke-linecap="square" stroke-width="5" d="M34 14h15"/>
    </g>
    <path stroke="#030303" stroke-width="3" d="M2 78h117v25H2z"/>
    <path stroke="#000" stroke-linecap="square" stroke-width="5" d="M12 87h16M12 93h16M61 87h16M61 93h16"/>
  </g>
</svg>